<?xml version="1.0" encoding="UTF-8"?>
<svg width="312px" height="88px" viewBox="0 0 312 88" version="1.1" xmlns="http://www.w3.org/2000/svg" xmlns:xlink="http://www.w3.org/1999/xlink">
    <!-- Generator: Sketch 52.1 (67048) - http://www.bohemiancoding.com/sketch -->
    <title>All</title>
    <desc>Created with Sketch.</desc>
    <defs>
        <ellipse id="path-1" cx="3.27886978" cy="1.67608706" rx="3.27886978" ry="1.67608706"></ellipse>
        <ellipse id="path-3" cx="3.47174447" cy="1.77468042" rx="3.47174447" ry="1.77468042"></ellipse>
        <path d="M1.80523653,0.0854637279 C2.08649295,-0.0239669942 2.54474569,-0.0230931259 2.8237561,0.0854637279 L4.20656395,0.623484037 C4.48782037,0.732914759 4.62787631,0.966577455 4.52130381,1.14222613 L3.9931182,2.01276128 C3.88568782,2.18982391 3.5139944,2.33336153 3.16911857,2.33336153 L1.45987406,2.33336153 C1.11222202,2.33336153 0.742446918,2.18840996 0.635874422,2.01276128 L0.107688821,1.14222613 C0.00025843245,0.965163507 0.143418263,0.73204089 0.422428677,0.623484037 L1.80523653,0.0854637279 Z" id="path-5"></path>
        <path d="M2.25654566,0.0997076825 C2.60811618,-0.0279614932 3.18093211,-0.0269419802 3.52969512,0.0997076825 L5.25820494,0.727398043 C5.60977546,0.855067219 5.78484538,1.1276737 5.65162976,1.33259716 L4.99139775,2.3482215 C4.85710978,2.55479456 4.392493,2.72225511 3.96139821,2.72225511 L1.82484258,2.72225511 C1.39027752,2.72225511 0.928058647,2.55314495 0.794843028,2.3482215 L0.134611027,1.33259716 C0.000323040563,1.12602409 0.179272828,0.854047706 0.528035846,0.727398043 L2.25654566,0.0997076825 Z" id="path-7"></path>
    </defs>
    <g id="Page-5" stroke="none" stroke-width="1" fill="none" fill-rule="evenodd">
        <g id="All" transform="translate(-12.000000, -8.000000)">
            <rect id="bg" fill-opacity="0" fill="#D8D8D8" x="0" y="0" width="328" height="98"></rect>
            <g id="icons" transform="translate(11.000000, 7.000000)">
                <g id="8" opacity="0.98" transform="translate(218.887655, 52.202624) rotate(-289.000000) translate(-218.887655, -52.202624) translate(214.887655, 50.202624)" stroke="#61B0FF" stroke-linecap="round" stroke-linejoin="round" stroke-width="2.30769231">
                    <polyline id="Path-2" points="7.32923833 0 7.32923833 0.936636889 5.49692875 0.936636889 5.49692875 1.87327378 3.66461916 1.87327378 3.66461916 2.80991067 1.83230958 2.80991067 1.83230958 3.74654756 0 3.74654756"></polyline>
                </g>
                <g id="7" opacity="0.74" transform="translate(311.321379, 45.365859) rotate(-96.000000) translate(-311.321379, -45.365859) translate(308.821379, 43.865859)" fill="#B756FF">
                    <path d="M0,0.334042664 C0,0.149555995 0.292517049,0 0.653475835,0 L1.9629113,0 C2.32381603,0 2.40889669,0.106064617 2.15465233,0.23602881 L0.461734804,1.10141151 C0.206725713,1.23176662 0,1.18791195 0,1.00339765 L0,0.334042664 Z M0,1.67148298 C0,1.48699632 0.292517049,1.33744032 0.653475835,1.33744032 L1.9629113,1.33744032 C2.32381603,1.33744032 2.40889669,1.44350493 2.15465233,1.57346913 L0.461734804,2.43885182 C0.206725713,2.56920693 0,2.52535227 0,2.34083798 L0,1.67148298 Z M2.61638714,0.334042664 C2.61638714,0.149555995 2.90890419,0 3.26986297,0 L4.57929845,0 C4.94020317,0 5.02528383,0.106064617 4.77103946,0.23602881 L3.07812195,1.10141151 C2.82311286,1.23176662 2.61638714,1.18791195 2.61638714,1.00339765 L2.61638714,0.334042664 Z" id="Combined-Shape"></path>
                </g>
                <g id="6" opacity="0.85" transform="translate(182.530823, 4.539178) rotate(-256.000000) translate(-182.530823, -4.539178) translate(179.030823, 2.539178)">
                    <g id="Oval-2">
                        <g id="path-1-Clipped">
                            <mask id="mask-2" fill="white">
                                <use xlink:href="#path-1"></use>
                            </mask>
                            <g id="path-1"></g>
                            <ellipse id="path-1" stroke="#B756FF" stroke-width="4.61538462" mask="url(#mask-2)" cx="3.27886978" cy="1.67608706" rx="3.27886978" ry="1.67608706"></ellipse>
                        </g>
                    </g>
                    <ellipse id="Oval-2" fill="#B756FF" fill-rule="nonzero" cx="3.27886978" cy="1.67608706" rx="1" ry="1"></ellipse>
                </g>
                <g id="6" opacity="0.94" transform="translate(141.485194, 35.825915) rotate(-166.000000) translate(-141.485194, -35.825915) translate(137.985194, 33.825915)">
                    <g id="Oval-2">
                        <g id="path-1-Clipped">
                            <mask id="mask-4" fill="white">
                                <use xlink:href="#path-3"></use>
                            </mask>
                            <g id="path-1"></g>
                            <ellipse id="path-1" stroke="#B756FF" stroke-width="4.61538462" mask="url(#mask-4)" cx="3.47174447" cy="1.77468042" rx="3.47174447" ry="1.77468042"></ellipse>
                        </g>
                    </g>
                    <ellipse id="Oval-2" fill="#B756FF" fill-rule="nonzero" cx="3.47174447" cy="1.77468042" rx="1" ry="1"></ellipse>
                </g>
                <g id="5" opacity="0.95" transform="translate(43.433964, 56.619342) rotate(-29.000000) translate(-43.433964, -56.619342) translate(39.433964, 54.619342)" stroke="#C50A99" stroke-linecap="round" stroke-linejoin="round" stroke-width="2.30769231">
                    <path d="M7.32923833,0 L7.32923833,0.135058878 C7.32923833,0.35606236 6.97873841,0.535221079 6.54352684,0.535221079 L6.02088172,0.535221079 C5.58694527,0.535221079 5.23517024,0.71438903 5.23517024,0.936859737 L5.23517024,1.20402458 C5.23517024,1.42584349 4.88467032,1.60566324 4.44945875,1.60566324 L3.92681363,1.60566324 C3.49287717,1.60566324 3.14110214,1.78483119 3.14110214,2.0073019 L3.14110214,2.27446674 C3.14110214,2.49628564 2.79060222,2.6761054 2.35539066,2.6761054 L1.83274553,2.6761054 C1.39880906,2.6761054 1.04703405,2.85527335 1.04703405,3.07774406 L1.04703405,3.3449089 C1.04703405,3.5667278 0.692556081,3.74654756 0.2642109,3.74654756 L0,3.74654756" id="Path-2"></path>
                </g>
                <g id="4" opacity="0.93" transform="translate(282.741950, 24.133418) rotate(-25.000000) translate(-282.741950, -24.133418) translate(280.241950, 22.633418)">
                    <mask id="mask-6" fill="white">
                        <use xlink:href="#path-5"></use>
                    </mask>
                    <g id="path-1"></g>
                    <path d="M1.80523653,0.0854637279 C2.08649295,-0.0239669942 2.54474569,-0.0230931259 2.8237561,0.0854637279 L4.20656395,0.623484037 C4.48782037,0.732914759 4.62787631,0.966577455 4.52130381,1.14222613 L3.9931182,2.01276128 C3.88568782,2.18982391 3.5139944,2.33336153 3.16911857,2.33336153 L1.45987406,2.33336153 C1.11222202,2.33336153 0.742446918,2.18840996 0.635874422,2.01276128 L0.107688821,1.14222613 C0.00025843245,0.965163507 0.143418263,0.73204089 0.422428677,0.623484037 L1.80523653,0.0854637279 Z" id="path-1" stroke="#8163C9" stroke-width="4.61538462" mask="url(#mask-6)"></path>
                </g>
                <g id="4" opacity="0.75" transform="translate(201.338824, 70.754239) rotate(-66.000000) translate(-201.338824, -70.754239) translate(198.338824, 69.254239)">
                    <mask id="mask-8" fill="white">
                        <use xlink:href="#path-7"></use>
                    </mask>
                    <g id="path-1"></g>
                    <path d="M2.25654566,0.0997076825 C2.60811618,-0.0279614932 3.18093211,-0.0269419802 3.52969512,0.0997076825 L5.25820494,0.727398043 C5.60977546,0.855067219 5.78484538,1.1276737 5.65162976,1.33259716 L4.99139775,2.3482215 C4.85710978,2.55479456 4.392493,2.72225511 3.96139821,2.72225511 L1.82484258,2.72225511 C1.39027752,2.72225511 0.928058647,2.55314495 0.794843028,2.3482215 L0.134611027,1.33259716 C0.000323040563,1.12602409 0.179272828,0.854047706 0.528035846,0.727398043 L2.25654566,0.0997076825 Z" id="path-1" stroke="#8163C9" stroke-width="4.61538462" mask="url(#mask-8)"></path>
                </g>
                <g id="3" opacity="0.77" transform="translate(275.505574, 84.101839) rotate(-175.000000) translate(-275.505574, -84.101839) translate(272.505574, 82.601839)" fill="#7D6CEC">
                    <path d="M0,0.33430146 C0,0.149671861 0.293369261,0 0.653982109,0 L4.59345893,0 C4.95464327,0 5.03849694,0.10680768 4.78406755,0.236866473 L0.463373494,2.4455115 C0.20745938,2.57632924 0,2.53241397 0,2.34807651 L0,0.33430146 Z M5.24744104,2.34739903 C5.24744104,2.53240278 4.9541041,2.68237796 4.5921336,2.68237796 L3.27902795,2.68237796 C2.91711166,2.68237796 2.83179253,2.57601607 3.08674951,2.44568759 L4.78441204,1.57787935 C5.04013589,1.44715887 5.24744104,1.49113646 5.24744104,1.67616792 L5.24744104,2.34739903 Z" id="Combined-Shape"></path>
                </g>
                <g id="3" opacity="0.71" transform="translate(156.781018, 24.145963) rotate(-323.000000) translate(-156.781018, -24.145963) translate(154.281018, 22.645963)" fill="#7D6CEC">
                    <path d="M0,0.310422784 C0,0.138981014 0.272414314,0 0.607269101,0 L4.26535472,0 C4.60074018,0 4.6786043,0.0991785603 4.44234844,0.219947439 L0.430275388,2.2708321 C0.192640853,2.39230572 0,2.35152726 0,2.18035676 L0,0.310422784 Z M4.87262382,2.17972767 C4.87262382,2.35151687 4.60023952,2.49077954 4.26412406,2.49077954 L3.04481167,2.49077954 C2.70874654,2.49077954 2.62952164,2.39201492 2.8662674,2.27099562 L4.44266833,1.46517369 C4.68012619,1.34379038 4.87262382,1.38462671 4.87262382,1.55644164 L4.87262382,2.17972767 Z" id="Combined-Shape"></path>
                </g>
                <g id="3" opacity="0.83" transform="translate(57.512765, 69.432761) rotate(-36.000000) translate(-57.512765, -69.432761) translate(55.012765, 67.932761)" fill="#7D6CEC">
                    <path d="M0,0.286544108 C0,0.128290167 0.251459367,0 0.560556093,0 L3.93725051,0 C4.24683709,0 4.31871167,0.0915494403 4.10062933,0.203028405 L0.397177281,2.09615271 C0.177822326,2.2082822 0,2.17064055 0,2.01263701 L0,0.286544108 Z M4.4978066,2.01205631 C4.4978066,2.17063096 4.24637494,2.29918111 3.93611452,2.29918111 L2.81059539,2.29918111 C2.50038142,2.29918111 2.42725074,2.20801377 2.6457853,2.09630365 L4.10092461,1.35246802 C4.32011648,1.24042189 4.4978066,1.27811696 4.4978066,1.43671536 L4.4978066,2.01205631 Z" id="Combined-Shape"></path>
                </g>
                <g id="3" opacity="0.91" transform="translate(3.131867, 11.735047) rotate(-229.000000) translate(-3.131867, -11.735047) translate(0.631867, 10.235047)" fill="#7D6CEC">
                    <path d="M0,0.286544108 C0,0.128290167 0.251459367,0 0.560556093,0 L3.93725051,0 C4.24683709,0 4.31871167,0.0915494403 4.10062933,0.203028405 L0.397177281,2.09615271 C0.177822326,2.2082822 0,2.17064055 0,2.01263701 L0,0.286544108 Z M4.4978066,2.01205631 C4.4978066,2.17063096 4.24637494,2.29918111 3.93611452,2.29918111 L2.81059539,2.29918111 C2.50038142,2.29918111 2.42725074,2.20801377 2.6457853,2.09630365 L4.10092461,1.35246802 C4.32011648,1.24042189 4.4978066,1.27811696 4.4978066,1.43671536 L4.4978066,2.01205631 Z" id="Combined-Shape"></path>
                </g>
                <g id="2" opacity="0.83" transform="translate(277.081370, 6.959452) rotate(-4.000000) translate(-277.081370, -6.959452) translate(274.581370, 5.459452)" fill="#B227F7" fill-rule="nonzero">
                    <rect x="0.258960107" y="0.0412385675" width="4.40856441" height="2.24022775"></rect>
                </g>
                <g id="2" opacity="0.97" transform="translate(85.586436, 5.233882) rotate(-311.000000) translate(-85.586436, -5.233882) translate(82.086436, 3.233882)" fill="#B227F7" fill-rule="nonzero">
                    <rect x="0.338640139" y="0.0549847566" width="5.76504577" height="2.98697033"></rect>
                </g>
                <g id="2" opacity="0.94" transform="translate(9.483711, 37.300465) rotate(-131.000000) translate(-9.483711, -37.300465) translate(6.483711, 35.800465)" fill="#B227F7" fill-rule="nonzero">
                    <rect x="0.298800123" y="0.0481116621" width="5.08680509" height="2.61359904"></rect>
                </g>
                <g id="1" opacity="0.93" transform="translate(134.970532, 85.382045) rotate(-152.000000) translate(-134.970532, -85.382045) translate(130.970532, 83.382045)" fill="#C71493" fill-rule="nonzero">
                    <path d="M6.72006848,0.98147233 C6.18986973,0.98147233 5.7600587,0.761762265 5.7600587,0.490736165 C5.7600587,0.219710065 6.18986973,0 6.72006848,0 C7.25026724,0 7.68007827,0.219710065 7.68007827,0.490736165 C7.68007827,0.761762265 7.25026724,0.98147233 6.72006848,0.98147233 Z M3.84003913,0.98147233 C3.30984038,0.98147233 2.88002935,0.761762265 2.88002935,0.490736165 C2.88002935,0.219710065 3.30984038,0 3.84003913,0 C4.37023789,0 4.80004892,0.219710065 4.80004892,0.490736165 C4.80004892,0.761762265 4.37023789,0.98147233 3.84003913,0.98147233 Z M0.960009784,0.98147233 C0.42981102,0.98147233 0,0.761762265 0,0.490736165 C0,0.219710065 0.42981102,0 0.960009784,0 C1.49020855,0 1.92001957,0.219710065 1.92001957,0.490736165 C1.92001957,0.761762265 1.49020855,0.98147233 0.960009784,0.98147233 Z M6.72006848,2.45368082 C6.18986973,2.45368082 5.7600587,2.23397075 5.7600587,1.96294466 C5.7600587,1.69191856 6.18986973,1.47220849 6.72006848,1.47220849 C7.25026724,1.47220849 7.68007827,1.69191856 7.68007827,1.96294466 C7.68007827,2.23397075 7.25026724,2.45368082 6.72006848,2.45368082 Z M3.84003913,2.45368082 C3.30984038,2.45368082 2.88002935,2.23397075 2.88002935,1.96294466 C2.88002935,1.69191856 3.30984038,1.47220849 3.84003913,1.47220849 C4.37023789,1.47220849 4.80004892,1.69191856 4.80004892,1.96294466 C4.80004892,2.23397075 4.37023789,2.45368082 3.84003913,2.45368082 Z M6.72006848,3.92588932 C6.18986973,3.92588932 5.7600587,3.70617925 5.7600587,3.43515315 C5.7600587,3.16412706 6.18986973,2.94441699 6.72006848,2.94441699 C7.25026724,2.94441699 7.68007827,3.16412706 7.68007827,3.43515315 C7.68007827,3.70617925 7.25026724,3.92588932 6.72006848,3.92588932 Z M3.84003913,3.92588932 C3.30984038,3.92588932 2.88002935,3.70617925 2.88002935,3.43515315 C2.88002935,3.16412706 3.30984038,2.94441699 3.84003913,2.94441699 C4.37023789,2.94441699 4.80004892,3.16412706 4.80004892,3.43515315 C4.80004892,3.70617925 4.37023789,3.92588932 3.84003913,3.92588932 Z M0.960009784,3.92588932 C0.42981102,3.92588932 0,3.70617925 0,3.43515315 C0,3.16412706 0.42981102,2.94441699 0.960009784,2.94441699 C1.49020855,2.94441699 1.92001957,3.16412706 1.92001957,3.43515315 C1.92001957,3.70617925 1.49020855,3.92588932 0.960009784,3.92588932 Z" id="Combined-Shape"></path>
                    <ellipse id="Oval" cx="0.960009784" cy="1.96294466" rx="1" ry="1"></ellipse>
                </g>
                <g id="1" opacity="0.88" transform="translate(123.495215, 55.463882) rotate(-44.000000) translate(-123.495215, -55.463882) translate(119.995215, 53.463882)" fill="#C71493" fill-rule="nonzero">
                    <path d="M6.04806164,0.883325097 C5.57088276,0.883325097 5.18405283,0.685586038 5.18405283,0.441662548 C5.18405283,0.197739058 5.57088276,0 6.04806164,0 C6.52524051,0 6.91207044,0.197739058 6.91207044,0.441662548 C6.91207044,0.685586038 6.52524051,0.883325097 6.04806164,0.883325097 Z M3.45603522,0.883325097 C2.97885634,0.883325097 2.59202642,0.685586038 2.59202642,0.441662548 C2.59202642,0.197739058 2.97885634,0 3.45603522,0 C3.9332141,0 4.32004403,0.197739058 4.32004403,0.441662548 C4.32004403,0.685586038 3.9332141,0.883325097 3.45603522,0.883325097 Z M0.864008805,0.883325097 C0.386829918,0.883325097 0,0.685586038 0,0.441662548 C0,0.197739058 0.386829918,0 0.864008805,0 C1.34118769,0 1.72801761,0.197739058 1.72801761,0.441662548 C1.72801761,0.685586038 1.34118769,0.883325097 0.864008805,0.883325097 Z M6.04806164,2.20831274 C5.57088276,2.20831274 5.18405283,2.01057368 5.18405283,1.76665019 C5.18405283,1.52272671 5.57088276,1.32498764 6.04806164,1.32498764 C6.52524051,1.32498764 6.91207044,1.52272671 6.91207044,1.76665019 C6.91207044,2.01057368 6.52524051,2.20831274 6.04806164,2.20831274 Z M3.45603522,2.20831274 C2.97885634,2.20831274 2.59202642,2.01057368 2.59202642,1.76665019 C2.59202642,1.52272671 2.97885634,1.32498764 3.45603522,1.32498764 C3.9332141,1.32498764 4.32004403,1.52272671 4.32004403,1.76665019 C4.32004403,2.01057368 3.9332141,2.20831274 3.45603522,2.20831274 Z M6.04806164,3.53330039 C5.57088276,3.53330039 5.18405283,3.33556132 5.18405283,3.09163784 C5.18405283,2.84771435 5.57088276,2.64997529 6.04806164,2.64997529 C6.52524051,2.64997529 6.91207044,2.84771435 6.91207044,3.09163784 C6.91207044,3.33556132 6.52524051,3.53330039 6.04806164,3.53330039 Z M3.45603522,3.53330039 C2.97885634,3.53330039 2.59202642,3.33556132 2.59202642,3.09163784 C2.59202642,2.84771435 2.97885634,2.64997529 3.45603522,2.64997529 C3.9332141,2.64997529 4.32004403,2.84771435 4.32004403,3.09163784 C4.32004403,3.33556132 3.9332141,3.53330039 3.45603522,3.53330039 Z M0.864008805,3.53330039 C0.386829918,3.53330039 0,3.33556132 0,3.09163784 C0,2.84771435 0.386829918,2.64997529 0.864008805,2.64997529 C1.34118769,2.64997529 1.72801761,2.84771435 1.72801761,3.09163784 C1.72801761,3.33556132 1.34118769,3.53330039 0.864008805,3.53330039 Z" id="Combined-Shape"></path>
                    <ellipse id="Oval" cx="0.864008805" cy="1.76665019" rx="1" ry="1"></ellipse>
                </g>
            </g>
        </g>
    </g>
</svg>