<?xml version="1.0" encoding="UTF-8"?>
<svg width="32px" height="28px" viewBox="0 0 32 28" version="1.1" xmlns="http://www.w3.org/2000/svg" xmlns:xlink="http://www.w3.org/1999/xlink">
    <!-- Generator: Sketch 52.1 (67048) - http://www.bohemiancoding.com/sketch -->
    <title>frind-active</title>
    <desc>Created with Sketch.</desc>
    <g id="Page-3" stroke="none" stroke-width="1" fill="none" fill-rule="evenodd">
        <g id="frind-active" transform="translate(-2.000000, -4.000000)">
            <g id="分组">
                <rect id="矩形" fill="#000000" opacity="0" x="11.3684211" y="11.3684211" width="13.6421053" height="13.6421053"></rect>
                <path d="M23.4968469,13.5157895 C23.4968469,8.58315789 19.4584337,4.54736842 14.5225954,4.54736842 C9.58675708,4.54736842 5.5483439,8.58315789 5.5483439,13.5157895 C5.5483439,16.7668421 7.3431942,19.5694737 9.92329151,21.1389474 C6.22141277,22.7084211 3.19260288,25.9594737 2.29517773,30.1073684 C2.18299959,30.6678947 2.51953402,31.3405263 3.08042474,31.4526316 L3.30478103,31.4526316 C3.86567175,31.4526316 4.31438432,31.1163158 4.42656247,30.5557895 C5.5483439,25.8473684 9.81111337,22.3721053 14.5225954,22.3721053 L14.6347735,22.3721053 C19.5706119,22.3721053 23.4968469,18.3363158 23.4968469,13.5157895 Z M7.79190678,13.5157895 C7.79190678,9.81631579 10.8207167,6.78947368 14.5225954,6.78947368 C18.2244741,6.78947368 21.253284,9.81631579 21.253284,13.5157895 C21.253284,17.2152632 18.2244741,20.2421053 14.5225954,20.2421053 C10.8207167,20.2421053 7.79190678,17.2152632 7.79190678,13.5157895 Z M25.7404098,19.1210526 C25.0673409,19.1210526 24.6186283,19.6815789 24.7308065,20.3542105 C24.7308065,20.9147368 25.2916972,21.3631579 25.8525879,21.3631579 L25.9647661,21.3631579 C29.6666448,21.1389474 32.5832766,18 32.5832766,14.3005263 C32.5832766,10.6010526 29.6666448,7.57421053 26.0769442,7.23789474 C25.4038753,7.23789474 24.9551628,7.68631579 24.8429846,8.24684211 C24.8429846,8.91947368 25.2916972,9.36789474 25.8525879,9.48 C28.3205071,9.70421053 30.3397137,11.8342105 30.3397137,14.3005263 C30.3397137,16.8789474 28.3205071,19.0089474 25.7404098,19.1210526 Z M33.705058,26.6321053 C33.3685236,25.1747368 32.2467421,23.3810526 30.9006044,22.4842105 C30.3397137,22.1478947 29.6666448,22.3721053 29.3301104,22.8205263 C28.9935759,23.3810526 29.2179322,24.0536842 29.6666448,24.39 C30.4518918,24.8384211 31.2371388,26.1836842 31.4614951,27.0805263 C31.5736733,27.6410526 32.0223858,27.9773684 32.5832766,27.9773684 L32.8076328,27.9773684 C33.4807017,27.8652632 33.8172361,27.3047368 33.705058,26.6321053 Z M21.8141747,22.4842105 C24.2820939,24.2778947 26.0769442,26.9684211 26.8621912,30.1073684 C27.0865475,30.6678947 26.6378349,31.3405263 26.0769442,31.4526316 L25.8525879,31.4526316 C25.2916972,31.4526316 24.8429846,31.1163158 24.7308065,30.5557895 C24.1699158,28.0894737 22.5994218,25.8473684 20.5802152,24.39 L19.9071463,23.9415789 C19.3462556,23.6052632 19.2340774,22.9326316 19.5706119,22.3721053 C19.9071463,21.8115789 20.5802152,21.6994737 21.1411059,22.0357895 L21.8141747,22.4842105 Z M11.7473684,15.2033575 L17.2436529,15.1578947 C16.6136259,15.9983676 15.6094095,16.5421904 14.4781765,16.5421904 C13.3674724,16.5421904 12.3792168,16.0179265 11.7473684,15.2033575 Z M17.8105263,12.8842105 C17.1826658,12.8842105 16.6736842,12.375229 16.6736842,11.7473684 C16.6736842,11.1195079 17.1826658,10.6105263 17.8105263,10.6105263 C18.4383869,10.6105263 18.9473684,11.1195079 18.9473684,11.7473684 C18.9473684,12.375229 18.4383869,12.8842105 17.8105263,12.8842105 Z M11.3684211,12.8842105 C10.7405605,12.8842105 10.2315789,12.375229 10.2315789,11.7473684 C10.2315789,11.1195079 10.7405605,10.6105263 11.3684211,10.6105263 C11.9962816,10.6105263 12.5052632,11.1195079 12.5052632,11.7473684 C12.5052632,12.375229 11.9962816,12.8842105 11.3684211,12.8842105 Z" id="形状" fill="#29A1F7" fill-rule="nonzero"></path>
            </g>
        </g>
    </g>
</svg>