<?xml version="1.0" encoding="UTF-8"?>
<svg width="28px" height="30px" viewBox="0 0 28 30" version="1.1" xmlns="http://www.w3.org/2000/svg" xmlns:xlink="http://www.w3.org/1999/xlink">
    <!-- Generator: Sketch 52.1 (67048) - http://www.bohemiancoding.com/sketch -->
    <title>我的</title>
    <desc>Created with Sketch.</desc>
    <g id="Page-3" stroke="none" stroke-width="1" fill="none" fill-rule="evenodd">
        <g id="我的" transform="translate(-4.000000, -3.000000)">
            <rect id="矩形" fill="#000000" opacity="0" x="0" y="0" width="36" height="36"></rect>
            <path d="M18.0000899,3.73592303 C12.5239907,3.73592303 8.08560795,8.12084604 8.08560795,13.5310379 C8.08560795,16.6549799 9.570789,19.4303902 11.8752066,21.2237023 C7.74286833,23.3048553 4.83420438,27.4485978 4.51204281,32.2641129 L5.99495737,32.2641129 C6.34276955,27.7546783 9.26906154,23.7621412 13.3529407,22.1748974 C14.6505809,22.7915193 16.4637156,23.3261169 18.0000899,23.3261169 C19.5364282,23.3261169 20.9854898,22.9709656 22.2832379,22.3544876 L23.3003763,21.7649193 L24.1241458,21.2237023 C26.4295348,19.4303902 27.9145359,16.6549799 27.9145359,13.5310379 C27.9145359,8.12081007 23.4759733,3.73592303 18.0000899,3.73592303 Z M9.70026521,13.5303544 C9.70026521,9.00257228 13.415898,5.33090166 18.0000899,5.33090166 C22.584102,5.33090166 26.3005622,9.00253628 26.3005622,13.5303544 C26.3005263,18.0594317 22.7681892,21.7304188 18.0000899,21.7304188 C13.415898,21.7304188 9.70026521,18.0593957 9.70026521,13.5303544 Z M26.2837751,22.5502163 L26.2910062,22.5398913 C29.1938061,24.8125424 31.132064,28.26451 31.3912682,32.1413495 L29.5855445,32.1413495 C29.3160512,28.6512119 27.9488341,25.7176168 25.2378202,23.7801864 L25.2437922,23.7713004 C24.9610958,23.6193035 24.7620428,23.3307431 24.7620428,22.9865645 C24.7620428,22.4880505 25.1655812,22.298423 25.6642391,22.298423 C25.9058153,22.298423 26.1218848,22.3957011 26.2837751,22.5502163 Z M21.9375,12.9375 C21.1608496,12.9375 20.53125,12.3079004 20.53125,11.53125 C20.53125,10.7545996 21.1608496,10.125 21.9375,10.125 C22.7141504,10.125 23.34375,10.7545996 23.34375,11.53125 C23.34375,12.3079004 22.7141504,12.9375 21.9375,12.9375 Z M13.78125,12.9375 C13.0045996,12.9375 12.375,12.3079004 12.375,11.53125 C12.375,10.7545996 13.0045996,10.125 13.78125,10.125 C14.5579004,10.125 15.1875,10.7545996 15.1875,11.53125 C15.1875,12.3079004 14.5579004,12.9375 13.78125,12.9375 Z M14.625,16.3496848 L20.4455122,16.3125 C19.9249545,17.3540292 18.8132196,18.073509 17.5258028,18.073509 C16.2537643,18.073509 15.1532356,17.371115 14.625,16.3496848 Z" id="形状" fill="#29A1F7" fill-rule="nonzero"></path>
        </g>
    </g>
</svg>