<?xml version="1.0" encoding="UTF-8"?>
<svg width="28px" height="30px" viewBox="0 0 28 30" version="1.1" xmlns="http://www.w3.org/2000/svg" xmlns:xlink="http://www.w3.org/1999/xlink">
    <!-- Generator: Sketch 52.1 (67048) - http://www.bohemiancoding.com/sketch -->
    <title>我的 copy</title>
    <desc>Created with Sketch.</desc>
    <g id="Page-4" stroke="none" stroke-width="1" fill="none" fill-rule="evenodd">
        <g id="我的-copy" transform="translate(-4.000000, -3.000000)" fill="#000000">
            <rect id="矩形" opacity="0" x="0" y="0" width="36" height="36"></rect>
            <path d="M18.0000899,3.73592303 C12.5239907,3.73592303 8.08560795,8.12084604 8.08560795,13.5310379 C8.08560795,16.6549799 9.570789,19.4303902 11.8752066,21.2237023 C7.74286833,23.3048553 4.83420438,27.4485978 4.51204281,32.2641129 L5.99495737,32.2641129 C6.34276955,27.7546783 9.26906154,23.7621412 13.3529407,22.1748974 C14.6505809,22.7915193 16.4637156,23.3261169 18.0000899,23.3261169 C19.5364282,23.3261169 20.9854898,22.9709656 22.2832379,22.3544876 L23.3003763,21.7649193 L24.1241458,21.2237023 C26.4295348,19.4303902 27.9145359,16.6549799 27.9145359,13.5310379 C27.9145359,8.12081007 23.4759733,3.73592303 18.0000899,3.73592303 Z M18.0000899,21.7304188 C13.415898,21.7304188 9.70026521,18.0593957 9.70026521,13.5303544 C9.70026521,9.00257228 13.415898,5.33090166 18.0000899,5.33090166 C22.584102,5.33090166 26.3005622,9.00253628 26.3005622,13.5303544 C26.3005263,18.0594317 22.7681892,21.7304188 18.0000899,21.7304188 Z M26.380428,22.6729438 C26.2185378,22.5184285 26.0024683,22.4211505 25.7608921,22.4211505 C25.2622342,22.4211505 24.8586958,22.6107779 24.8586958,23.1092919 C24.8586958,23.4534705 25.0577488,23.7420309 25.3404451,23.8940279 L25.3344732,23.9029138 C28.0454871,25.8403443 29.4127041,28.7739393 29.6821974,32.264077 L31.4879212,32.264077 C31.2287169,28.3872375 29.2904591,24.9352699 26.3876592,22.6626188 L26.380428,22.6729438 Z" id="形状" fill-rule="nonzero"></path>
        </g>
    </g>
</svg>