<?xml version="1.0" encoding="UTF-8"?>
<svg width="28px" height="8px" viewBox="0 0 28 8" version="1.1" xmlns="http://www.w3.org/2000/svg" xmlns:xlink="http://www.w3.org/1999/xlink">
    <!-- Generator: Sketch 52.1 (67048) - http://www.bohemiancoding.com/sketch -->
    <title>更多</title>
    <desc>Created with Sketch.</desc>
    <g id="Page-3" stroke="none" stroke-width="1" fill="none" fill-rule="evenodd">
        <g id="更多" transform="translate(-2.000000, -12.000000)">
            <rect id="矩形" fill="#000000" opacity="0" x="0" y="0" width="32" height="32"></rect>
            <path d="M2,16 C2,17.9105601 3.54881494,19.459375 5.459375,19.459375 C7.36993506,19.459375 8.91875,17.9105601 8.91875,16 C8.91875,14.0894399 7.36993506,12.540625 5.459375,12.540625 C3.54881494,12.540625 2,14.0894399 2,16 Z" id="路径" fill="#FFFFFF"></path>
            <path d="M12.540625,16 C12.540625,17.9105601 14.0894399,19.459375 16,19.459375 C17.9105601,19.459375 19.459375,17.9105601 19.459375,16 C19.459375,14.7640843 18.8000219,13.6220511 17.7296875,13.0040933 C16.6593532,12.3861355 15.3406468,12.3861355 14.2703125,13.0040933 C13.1999781,13.6220511 12.540625,14.7640843 12.540625,16 Z" id="路径" fill="#FFFFFF"></path>
            <path d="M23.08125,16 C23.08125,17.9105601 24.6300649,19.459375 26.540625,19.459375 C28.4511851,19.459375 30,17.9105601 30,16 C30,14.0894399 28.4511851,12.540625 26.540625,12.540625 C24.6300649,12.540625 23.08125,14.0894399 23.08125,16 Z" id="路径" fill="#FFFFFF"></path>
        </g>
    </g>
</svg>