<?xml version="1.0" encoding="UTF-8"?>
<svg width="16px" height="16px" viewBox="0 0 16 16" version="1.1" xmlns="http://www.w3.org/2000/svg" xmlns:xlink="http://www.w3.org/1999/xlink">
    <!-- Generator: Sketch 52.1 (67048) - http://www.bohemiancoding.com/sketch -->
    <title>qrcode-scan</title>
    <desc>Created with Sketch.</desc>
    <g id="Page-3" stroke="none" stroke-width="1" fill="none" fill-rule="evenodd">
        <g id="qrcode-scan">
            <rect id="矩形" fill="#000000" opacity="0" x="0" y="0" width="16" height="16"></rect>
            <path d="M2.66666667,2.66666667 L6.66666667,2.66666667 L6.66666667,6.66666667 L2.66666667,6.66666667 L2.66666667,2.66666667 Z M13.3333333,2.66666667 L13.3333333,6.66666667 L9.33333333,6.66666667 L9.33333333,2.66666667 L13.3333333,2.66666667 Z M9.33333333,10 L10.6666667,10 L10.6666667,8.66666667 L9.33333333,8.66666667 L9.33333333,7.33333333 L10.6666667,7.33333333 L10.6666667,8.66666667 L12,8.66666667 L12,7.33333333 L13.3333333,7.33333333 L13.3333333,8.66666667 L12,8.66666667 L12,10 L13.3333333,10 L13.3333333,12 L12,12 L12,13.3333333 L10.6666667,13.3333333 L10.6666667,12 L8.66666667,12 L8.66666667,13.3333333 L7.33333333,13.3333333 L7.33333333,10.6666667 L9.33333333,10.6666667 L9.33333333,10 Z M10.6666667,10 L10.6666667,12 L12,12 L12,10 L10.6666667,10 Z M2.66666667,13.3333333 L2.66666667,9.33333333 L6.66666667,9.33333333 L6.66666667,13.3333333 L2.66666667,13.3333333 Z M4,4 L4,5.33333333 L5.33333333,5.33333333 L5.33333333,4 L4,4 Z M10.6666667,4 L10.6666667,5.33333333 L12,5.33333333 L12,4 L10.6666667,4 Z M4,10.6666667 L4,12 L5.33333333,12 L5.33333333,10.6666667 L4,10.6666667 Z M2.66666667,7.33333333 L4,7.33333333 L4,8.66666667 L2.66666667,8.66666667 L2.66666667,7.33333333 Z M6,7.33333333 L8.66666667,7.33333333 L8.66666667,10 L7.33333333,10 L7.33333333,8.66666667 L6,8.66666667 L6,7.33333333 Z M7.33333333,4 L8.66666667,4 L8.66666667,6.66666667 L7.33333333,6.66666667 L7.33333333,4 Z M1.33333333,1.33333333 L1.33333333,4 L0,4 L0,1.33333333 C9.01804998e-17,0.596953665 0.596953665,-4.50902499e-17 1.33333333,0 L4,0 L4,1.33333333 L1.33333333,1.33333333 Z M14.6666667,0 C15.4030463,4.50902499e-17 16,0.596953665 16,1.33333333 L16,4 L14.6666667,4 L14.6666667,1.33333333 L12,1.33333333 L12,0 L14.6666667,0 Z M1.33333333,12 L1.33333333,14.6666667 L4,14.6666667 L4,16 L1.33333333,16 C0.596953665,16 9.01804998e-17,15.4030463 0,14.6666667 L0,12 L1.33333333,12 Z M14.6666667,14.6666667 L14.6666667,12 L16,12 L16,14.6666667 C16,15.4030463 15.4030463,16 14.6666667,16 L12,16 L12,14.6666667 L14.6666667,14.6666667 Z" id="形状" fill="#FFFFFF" fill-rule="nonzero"></path>
        </g>
    </g>
</svg>