<?xml version="1.0" encoding="UTF-8"?>
<svg width="36px" height="33px" viewBox="0 0 36 33" version="1.1" xmlns="http://www.w3.org/2000/svg" xmlns:xlink="http://www.w3.org/1999/xlink">
    <!-- Generator: Sketch 52.1 (67048) - http://www.bohemiancoding.com/sketch -->
    <title>守望相助</title>
    <desc>Created with Sketch.</desc>
    <g id="Page-3" stroke="none" stroke-width="1" fill="none" fill-rule="evenodd">
        <g id="守望相助" transform="translate(-3.000000, -5.000000)">
            <rect id="矩形" fill="#000000" opacity="0" x="0" y="0" width="42" height="42"></rect>
            <path d="M35.3764802,22.2157414 C37.2190183,20.3588829 38.2307692,17.888561 38.2307692,15.2535511 C38.2307692,12.6061895 37.2066799,10.1276333 35.3518033,8.26665752 C33.4969267,6.40568174 31.0169032,5.38461538 28.3764802,5.38461538 C25.7360571,5.38461538 23.2560336,6.40979894 21.401157,8.26665752 L20.734882,8.93364441 L20.0686071,8.26665752 C18.2137305,6.40568174 15.733707,5.38461538 13.0932839,5.38461538 C10.4528609,5.38461538 7.97283739,6.40979894 6.11796077,8.26665752 C4.25485854,10.1276333 3.23076923,12.6103067 3.23076923,15.2535511 C3.23076923,17.9009126 4.25485854,20.3794689 6.10973515,22.2404447 L7.64381271,23.7761614 C7.71373045,23.8461538 7.78776101,23.9037947 7.87001717,23.9490839 L7.21608063,24.7560557 C6.29481153,25.896521 6.4716623,27.5722226 7.61091024,28.4944761 L7.84122752,28.6797502 C8.30186206,29.0544157 8.86531682,29.2561586 9.45344843,29.2685103 C9.46989967,30.0260756 9.80303715,30.7712894 10.4364097,31.2818225 L10.6667269,31.4670967 C11.1273615,31.8417622 11.6908162,32.0435051 12.2789478,32.0558567 C12.2953991,32.8134221 12.6285366,33.5545186 13.2619091,34.069169 L13.4922263,34.2544431 C13.9693121,34.637343 14.5492181,34.8432032 15.153801,34.8432032 L15.1661394,34.8432032 C15.1661394,35.6213546 15.4992769,36.3912715 16.1491006,36.9182735 L16.3794179,37.1035477 C16.8565037,37.4864475 17.4364097,37.6923077 18.0409925,37.6923077 C18.1355871,37.6923077 18.2301817,37.6881905 18.3288891,37.6758389 C19.0362921,37.6017292 19.6696646,37.2558842 20.113848,36.704179 L21.1996294,35.3619708 L21.7178433,35.9301448 C22.1867034,36.4983188 22.8488656,36.8565155 23.5850583,36.9347423 C23.6878785,36.9470939 23.7865859,36.9512111 23.8852933,36.9512111 C24.5227786,36.9512111 25.1396999,36.7371166 25.6414625,36.3295135 C26.3365272,35.7654567 26.6943415,34.9337817 26.6778903,34.0979894 C26.7107927,34.0979894 26.7436952,34.1021066 26.7724849,34.1021066 C27.4099702,34.1021066 28.0268914,33.8880121 28.5286541,33.480409 C29.2072675,32.932821 29.560969,32.1258492 29.5691946,31.3147602 L29.6020971,31.3147602 C30.2395824,31.3147602 30.8565037,31.1006656 31.3582663,30.6930625 C32.0368797,30.1413573 32.3905812,29.3385027 32.3988068,28.5274137 L32.4317093,28.5274137 C33.0691946,28.5274137 33.6861159,28.3133192 34.1878785,27.9057161 C35.3888186,26.9340561 35.5780078,25.1636588 34.6032722,23.9614355 L34.2290066,23.5003088 C34.2660219,23.4714884 34.3030372,23.4385507 34.3359396,23.4014959 C34.348278,23.3850271 34.3647293,23.3685583 34.3770677,23.3520895 L35.3764802,22.2157414 Z M33.8999819,9.7241474 C36.9434602,12.7749949 36.9434602,17.7362245 33.8999819,20.7829548 C33.8835307,20.7994236 33.8711923,20.8158924 33.854741,20.8323612 L33.2789478,21.4869965 L27.6855283,15.6076305 C27.1714273,15.0559253 26.3324144,14.9776985 25.7319443,15.434708 C24.9422851,16.0358197 22.1003344,18.0408976 18.7154931,18.7284705 C16.4904637,19.1772456 15.1579138,18.6214232 14.4628491,18.1273588 L21.3929314,11.1857545 C21.4176082,11.1651685 21.4381723,11.1445824 21.4587363,11.1239964 C21.4793004,11.1034104 21.4998644,11.0787072 21.5204285,11.0581212 L22.8529784,9.7241474 C24.321251,8.25430591 26.2830607,7.44321691 28.3764802,7.44321691 C30.4698997,7.44321691 32.4317093,8.25430591 33.8999819,9.7241474 Z M9.0997469,22.3227887 L7.56566935,20.787072 C4.52219109,17.7362245 4.52219109,12.7749949 7.56566935,9.7282646 C9.03394197,8.25842311 10.9957516,7.44733411 13.0891711,7.44733411 C15.1825906,7.44733411 17.1444003,8.25842311 18.6126729,9.7282646 L19.2789478,10.3952515 L12.5627316,17.1186441 C11.9951641,17.6868181 11.9828256,18.5843684 12.5298292,19.1607768 C12.6778903,19.3172305 12.8917563,19.5189734 13.1673145,19.7248336 C12.8917563,19.6630756 12.6038597,19.6466067 12.3159631,19.6795444 C11.6085601,19.753654 10.9751876,20.0994991 10.5310042,20.6512043 L9.1449878,22.368078 L9.0997469,22.3227887 Z M8.64733797,27.2099087 C8.21549309,26.8599465 8.14557534,26.22178 8.49927687,25.7894737 L11.8142005,21.6846222 C11.9828256,21.4746449 12.2254813,21.3470116 12.4928139,21.3181912 C12.7642592,21.2893708 13.0233662,21.3675976 13.2331194,21.5364029 L13.4634367,21.7216771 C13.8952816,22.0716393 13.9651993,22.7098058 13.6156106,23.1421121 L13.5127904,23.2697454 C13.4634367,23.3232691 13.4099702,23.3809099 13.3647293,23.4385507 L10.2060924,27.3498936 C10.0456929,27.4981129 9.84416524,27.5928086 9.62207358,27.6133946 C9.35062822,27.6422151 9.09152129,27.5639882 8.88176806,27.3951829 L8.64733797,27.2099087 Z M11.3206635,28.5809373 L11.4234837,28.4533041 C11.4728374,28.3997804 11.5263039,28.3462568 11.5715448,28.2844987 L14.7301817,24.3731558 C14.8905812,24.2249365 15.0921088,24.1302409 15.3142005,24.1096548 C15.3512158,24.1055376 15.388231,24.1055376 15.4252463,24.1055376 C15.6555636,24.1055376 15.8776552,24.1837645 16.054506,24.3278666 L16.2848233,24.5131407 C16.7166682,24.863103 16.7865859,25.5012695 16.4369972,25.9335758 L16.3588538,26.0323887 C16.2969702,26.0943655 16.2392641,26.1603859 16.1861159,26.2300144 L13.0151406,30.1578261 C12.8588538,30.297811 12.661439,30.3883895 12.447573,30.4089755 C12.1761276,30.4377959 11.9170207,30.3595691 11.7072675,30.1907637 L11.4728374,30.0013724 C11.0409925,29.6514101 10.9710748,29.0132437 11.3206635,28.5809373 Z M14.2983368,32.7887189 C13.8664919,32.4387566 13.7965742,31.8005901 14.1461629,31.3682838 L14.2243062,31.2694709 C14.2859984,31.2077129 14.3435777,31.1418376 14.3970442,31.0718452 L17.5680195,27.1440335 C17.7243062,27.0040486 17.9217211,26.9134701 18.1355871,26.8928841 C18.4070325,26.8640637 18.6661394,26.9422905 18.8758926,27.1110959 L19.1062099,27.29637 C19.5380548,27.6463323 19.6079725,28.2844987 19.2583838,28.7168051 L15.9434602,32.8216565 C15.774835,33.0316338 15.5321793,33.1592671 15.2648468,33.1880876 C14.9975142,33.216908 14.7342945,33.1427983 14.5286541,32.973993 L14.2983368,32.7887189 Z M18.8347645,35.670761 C18.6661394,35.8807384 18.4234837,36.0083716 18.1561511,36.0371921 C17.8847058,36.0660125 17.6255988,35.9877856 17.4158456,35.8189803 L17.1855283,35.6337062 C16.7536834,35.2837439 16.6837657,34.6455774 17.0333544,34.2132711 L20.348278,30.1084197 C20.5169032,29.8984423 20.7595589,29.770809 21.0268914,29.7419886 C21.0639067,29.7378714 21.100922,29.7378714 21.1379373,29.7378714 C21.3682545,29.7378714 21.5903462,29.8160983 21.767197,29.9602004 L21.9975142,30.1454745 C22.4293591,30.4954368 22.4992769,31.1336032 22.1496881,31.5659096 L18.8347645,35.670761 Z M23.7619091,35.3002127 C23.4534484,35.2672751 23.1778903,35.1190558 22.9845883,34.880258 C22.9722498,34.8679064 22.9640242,34.8555548 22.9516858,34.8432032 L22.2483956,34.069169 L23.4328844,32.6034447 C23.5644943,32.4428738 23.6714273,32.2699513 23.7577963,32.0887943 L24.7695471,33.4062993 C24.7736599,33.4104165 24.7777728,33.4186509 24.7818856,33.4227681 C25.180828,33.9168325 25.1067974,34.6496946 24.6091476,35.0531805 C24.3706047,35.2466891 24.0703697,35.3331503 23.7619091,35.3002127 Z M32.3000994,26.8722981 C32.0409925,26.8434777 31.8065624,26.7364304 31.621486,26.5593907 L28.1050348,22.2116242 C28.0803579,22.1786866 28.0515683,22.1498662 28.0227786,22.125163 L27.8541535,21.9151856 C27.5703697,21.5611062 27.0521558,21.5075825 26.6984543,21.7916695 C26.3447528,22.0757565 26.2912863,22.5945241 26.5750701,22.9486036 L30.2436952,27.4857613 C30.2930489,27.5434022 30.3424026,27.601043 30.3917563,27.6545667 L30.4945765,27.7822 C30.8976317,28.2803815 30.8194884,29.0091265 30.3218386,29.4126124 C30.0832957,29.6061209 29.7830607,29.6925822 29.4746,29.6596445 C29.2154931,29.6308241 28.981063,29.5237768 28.7959866,29.3467371 L24.8518033,24.599602 C24.8271265,24.5707816 24.8024496,24.5460784 24.7777728,24.5213751 L24.5968092,24.3031634 C24.3047998,23.9532011 23.7865859,23.9037947 23.4369972,24.1961161 C23.0874085,24.4884375 23.0380548,25.0072051 23.3300642,25.3571674 L27.4181958,30.277225 C27.4675495,30.3389831 27.521016,30.3966239 27.5703697,30.4501475 L27.6690771,30.5695464 C28.0680195,31.067728 27.9898762,31.7964729 27.4922263,32.1958416 C27.2536834,32.3893502 26.9534484,32.4758114 26.6449878,32.4428738 C26.3365272,32.4099362 26.060969,32.2617169 25.867667,32.0229191 L24.1649643,29.9149111 C24.1567387,29.9066767 24.1526259,29.8984423 24.1444003,29.8902079 C24.1361746,29.8778563 24.1238362,29.8696219 24.1156106,29.8572703 C24.107385,29.8490359 24.0950466,29.8408015 24.0868209,29.8284499 C24.0744825,29.8202155 24.0662569,29.8078639 24.0539185,29.7996295 C24.0456929,29.791395 24.0333544,29.7831606 24.021016,29.7749262 C24.0086776,29.7666918 24.000452,29.7584574 23.9881135,29.750223 C23.9757751,29.7419886 23.9675495,29.7378714 23.9552111,29.729637 C23.9428726,29.7214026 23.9305342,29.7172854 23.9223086,29.709051 C23.9099702,29.7008166 23.8976317,29.6966994 23.8852933,29.6925822 C23.8729549,29.688465 23.8606165,29.6802306 23.848278,29.6761134 L23.8112628,29.6637618 L23.7742475,29.6514101 L23.7372322,29.6390585 C23.7248938,29.6349413 23.7125554,29.6308241 23.7002169,29.6308241 C23.6919913,29.6308241 23.6878785,29.6267069 23.6796529,29.6267069 C23.5192534,29.3426199 23.3053873,29.0832361 23.0380548,28.8691416 L22.8077375,28.6838674 C22.3306517,28.2968503 21.7425201,28.0909902 21.1338245,28.0951074 C21.1338245,27.316956 20.800687,26.547039 20.1508632,26.0200371 L19.920546,25.8347629 C19.4599114,25.4600974 18.8964567,25.2583545 18.308325,25.2460029 C18.2918738,24.4884375 17.9587363,23.7432238 17.3253638,23.2326906 L17.0950466,23.0474165 C16.634412,22.672751 16.0709572,22.471008 15.4828256,22.4586564 C15.4663744,21.7257943 15.153801,21.0011665 14.5574437,20.4947506 C15.2525084,20.766486 16.1161981,20.9599945 17.1649643,20.9599945 C17.7572087,20.9599945 18.4111453,20.8982365 19.1267739,20.7541344 C22.4334719,20.0871475 25.1931664,18.3702738 26.5503932,17.4027311 L30.7619091,21.8287244 L33.3283015,25.0072051 C33.7231312,25.4930351 33.6449878,26.2258972 33.147338,26.6252659 C32.9087951,26.8187744 32.6085601,26.9052357 32.3000994,26.8722981 Z" id="形状" fill="#29A1F7" fill-rule="nonzero"></path>
        </g>
    </g>
</svg>