<?xml version="1.0" encoding="UTF-8"?>
<svg width="20px" height="28px" viewBox="0 0 20 28" version="1.1" xmlns="http://www.w3.org/2000/svg" xmlns:xlink="http://www.w3.org/1999/xlink">
    <!-- Generator: Sketch 52.1 (67048) - http://www.bohemiancoding.com/sketch -->
    <title>符号-时间轴</title>
    <desc>Created with Sketch.</desc>
    <g id="Page-3" stroke="none" stroke-width="1" fill="none" fill-rule="evenodd">
        <g id="符号-时间轴" transform="translate(-6.000000, -2.000000)">
            <rect id="矩形" fill="#000000" opacity="0" x="0" y="0" width="32" height="32"></rect>
            <path d="M12,11 C12,9.7 11.2,8.6 10,8.2 L10,3 C10,2.4 9.6,2 9,2 C8.4,2 8,2.4 8,3 L8,8.2 C6.8,8.6 6,9.7 6,11 C6,12.3 6.8,13.4 8,13.8 L8,18.1 C6.8,18.5 6,19.6 6,20.9 C6,22.2 6.8,23.3 8,23.7 L8,29 C8,29.6 8.4,30 9,30 C9.6,30 10,29.6 10,29 L10,23.8 C11.2,23.4 12,22.3 12,21 C12,19.7 11.2,18.6 10,18.2 L10,13.9 C11.2,13.4 12,12.3 12,11 Z M9,22 C8.4,22 8,21.6 8,21 C8,20.4 8.4,20 9,20 C9.6,20 10,20.4 10,21 C10,21.6 9.6,22 9,22 Z M9,12 C8.4,12 8,11.6 8,11 C8,10.4 8.4,10 9,10 C9.6,10 10,10.4 10,11 C10,11.6 9.6,12 9,12 Z M23,22 L15,22 C14.5,22 14,22.4 14,23 C14,23.6 14.4,24 15,24 L23,24 C23.5,24 24,23.6 24,23 C24,22.4 23.6,22 23,22 Z M25,8 L15,8 C14.5,8 14,8.4 14,9 C14,9.6 14.4,10 15,10 L25,10 C25.5,10 26,9.6 26,9 C26,8.4 25.6,8 25,8 Z M23,14 C23.5,14 24,13.6 24,13 C24,12.4 23.6,12 23,12 L15,12 C14.5,12 14,12.4 14,13 C14,13.6 14.4,14 15,14 L23,14 Z M25,18 L15,18 C14.5,18 14,18.4 14,19 C14,19.6 14.4,20 15,20 L25,20 C25.5,20 26,19.6 26,19 C26,18.4 25.6,18 25,18 Z" id="形状" fill="#FFFFFF" fill-rule="nonzero"></path>
        </g>
    </g>
</svg>